<svg width="268" height="299" viewBox="0 0 268 299" fill="none" xmlns="http://www.w3.org/2000/svg">
<mask id="path-1-inside-1_100_10040" fill="white">
<path d="M124.116 6.39999C124.116 4.15979 124.116 3.03969 123.68 2.18404C123.297 1.43139 122.685 0.819467 121.932 0.435974C121.077 0 119.957 0 117.716 0H7.51633C5.27612 0 4.15602 0 3.30037 0.435974C2.54772 0.819467 1.9358 1.43139 1.55231 2.18404C1.11633 3.03969 1.11633 4.15979 1.11633 6.4V147.6C1.11633 149.84 1.11633 150.96 1.55231 151.816C1.9358 152.569 2.54772 153.181 3.30037 153.564C4.15602 154 5.27612 154 7.51633 154H117.716C119.957 154 121.077 154 121.932 153.564C122.685 153.181 123.297 152.569 123.68 151.816C124.116 150.96 124.116 149.84 124.116 147.6V6.39999Z"/>
</mask>
<path d="M132.116 4C132.116 -2.62742 126.744 -8 120.116 -8H5.11633C-1.51109 -8 -6.88367 -2.62742 -6.88367 4L9.11633 8H116.116L132.116 4ZM-6.88367 158C-6.88367 164.627 -1.51109 170 5.11633 170H120.116C126.744 170 132.116 164.627 132.116 158L116.116 138H9.11633L-6.88367 158ZM120.116 170C126.744 170 132.116 164.627 132.116 158V4C132.116 -2.62742 126.744 -8 120.116 -8L116.116 8V138L120.116 170ZM5.11633 -8C-1.51109 -8 -6.88367 -2.62742 -6.88367 4V158C-6.88367 164.627 -1.51109 170 5.11633 170L9.11633 138V8L5.11633 -8Z" fill="#060420" mask="url(#path-1-inside-1_100_10040)"/>
<rect width="20" height="25" rx="4" transform="matrix(-1 0 0 1 94.1163 90)" fill="#060420"/>
<mask id="path-4-inside-2_100_10040" fill="white">
<path d="M267.116 6.39999C267.116 4.15979 267.116 3.03969 266.68 2.18404C266.297 1.43139 265.685 0.819467 264.932 0.435974C264.077 0 262.957 0 260.716 0H150.516C148.276 0 147.156 0 146.3 0.435974C145.548 0.819467 144.936 1.43139 144.552 2.18404C144.116 3.03969 144.116 4.15979 144.116 6.4V147.6C144.116 149.84 144.116 150.96 144.552 151.816C144.936 152.569 145.548 153.181 146.3 153.564C147.156 154 148.276 154 150.516 154H260.716C262.957 154 264.077 154 264.932 153.564C265.685 153.181 266.297 152.569 266.68 151.816C267.116 150.96 267.116 149.84 267.116 147.6V6.39999Z"/>
</mask>
<path d="M275.116 4C275.116 -2.62742 269.744 -8 263.116 -8H148.116C141.489 -8 136.116 -2.62742 136.116 4L152.116 8H259.116L275.116 4ZM136.116 158C136.116 164.627 141.489 170 148.116 170H263.116C269.744 170 275.116 164.627 275.116 158L259.116 138H152.116L136.116 158ZM263.116 170C269.744 170 275.116 164.627 275.116 158V4C275.116 -2.62742 269.744 -8 263.116 -8L259.116 8V138L263.116 170ZM148.116 -8C141.489 -8 136.116 -2.62742 136.116 4V158C136.116 164.627 141.489 170 148.116 170L152.116 138V8L148.116 -8Z" fill="#060420" mask="url(#path-4-inside-2_100_10040)"/>
<rect width="20" height="25" rx="4" transform="matrix(-1 0 0 1 237.116 90)" fill="#060420"/>
<rect x="1.11707" y="193" width="266" height="14" rx="4" fill="#060420"/>
<rect x="5.02966" y="192" width="266" height="14.3344" rx="4" transform="rotate(20.5413 5.02966 192)" fill="#060420"/>
</svg>
