<svg width="31" height="30" viewBox="0 0 31 30" fill="none" xmlns="http://www.w3.org/2000/svg">
<rect x="1.23071" y="1" width="28" height="28" rx="3" stroke="#060420" stroke-width="2"/>
<path d="M11.4338 20V8.625H15.2542C15.8739 8.625 16.4364 8.6875 16.9417 8.8125C17.4521 8.9375 17.887 9.1276 18.2463 9.38281C18.6057 9.63802 18.8818 9.96094 19.0745 10.3516C19.2724 10.7422 19.3713 11.2031 19.3713 11.7344C19.3661 12.0781 19.3036 12.4036 19.1838 12.7109C19.0693 13.013 18.8974 13.2786 18.6682 13.5078C18.5432 13.6328 18.4 13.7474 18.2385 13.8516C18.0823 13.9557 17.9078 14.0443 17.7151 14.1172V14.125C18.0901 14.2292 18.387 14.362 18.6057 14.5234C18.8297 14.6849 19.0172 14.8724 19.1682 15.0859C19.3245 15.3151 19.439 15.5651 19.512 15.8359C19.5901 16.1016 19.6292 16.3776 19.6292 16.6641C19.6292 17.2109 19.5354 17.6927 19.3479 18.1094C19.1604 18.526 18.8922 18.875 18.5432 19.1562C18.1943 19.4375 17.7698 19.6484 17.2698 19.7891C16.7698 19.9297 16.2073 20 15.5823 20H11.4338ZM13.637 14.9844V18.2266H15.5901C15.8765 18.2266 16.1318 18.1901 16.3557 18.1172C16.5849 18.0443 16.775 17.9453 16.926 17.8203C17.0927 17.6797 17.2177 17.5104 17.301 17.3125C17.3896 17.1146 17.4338 16.8932 17.4338 16.6484C17.4338 16.3932 17.4 16.1641 17.3323 15.9609C17.2698 15.7578 17.1682 15.5859 17.0276 15.4453C16.887 15.2995 16.7047 15.1875 16.4807 15.1094C16.2568 15.0312 15.9911 14.9896 15.6838 14.9844H13.637ZM13.637 13.3984H15.2698C15.6031 13.3932 15.8974 13.3542 16.1526 13.2812C16.4078 13.2031 16.6135 13.0885 16.7698 12.9375C16.9 12.8177 16.9989 12.6719 17.0667 12.5C17.1396 12.3281 17.176 12.1328 17.176 11.9141C17.176 11.6849 17.1448 11.4844 17.0823 11.3125C17.025 11.1406 16.9364 10.9974 16.8167 10.8828C16.6604 10.7214 16.4495 10.6042 16.1838 10.5312C15.9234 10.4583 15.6161 10.4193 15.262 10.4141H13.637V13.3984Z" fill="#060420"/>
</svg>
