<svg width="31" height="30" viewBox="0 0 31 30" fill="none" xmlns="http://www.w3.org/2000/svg">
<rect x="1.53857" y="1" width="28" height="28" rx="3" stroke="#060420" stroke-width="2"/>
<path d="M15.4214 20H14.0542V14.7422H9.39014V20H8.03076V8.625H9.39014V13.5156H14.0542V8.625H15.4214V20ZM24.8745 20H17.4214V18.9609L21.1479 14.8203C21.4813 14.4505 21.7599 14.1224 21.9839 13.8359C22.2078 13.5495 22.3875 13.2839 22.5229 13.0391C22.6584 12.7995 22.7547 12.5729 22.812 12.3594C22.8693 12.1406 22.8979 11.9167 22.8979 11.6875C22.8979 11.4062 22.8511 11.1432 22.7573 10.8984C22.6688 10.6484 22.5386 10.4323 22.3667 10.25C22.1896 10.0677 21.9761 9.92448 21.7261 9.82031C21.4813 9.71094 21.2026 9.65625 20.8901 9.65625C20.5099 9.65625 20.1792 9.71094 19.8979 9.82031C19.6219 9.92969 19.3927 10.0833 19.2104 10.2812C19.0229 10.4844 18.8823 10.7292 18.7886 11.0156C18.7 11.3021 18.6558 11.6224 18.6558 11.9766H17.2026C17.2026 11.4974 17.286 11.0469 17.4526 10.625C17.6193 10.1979 17.8615 9.82552 18.1792 9.50781C18.4917 9.1901 18.8745 8.9375 19.3276 8.75C19.786 8.5625 20.3068 8.46875 20.8901 8.46875C21.4266 8.46875 21.9084 8.54948 22.3354 8.71094C22.7677 8.86719 23.1323 9.08594 23.4292 9.36719C23.7261 9.64844 23.9526 9.98177 24.1089 10.3672C24.2703 10.7526 24.3511 11.1719 24.3511 11.625C24.3511 11.9635 24.2938 12.2995 24.1792 12.6328C24.0646 12.9609 23.911 13.2865 23.7183 13.6094C23.5203 13.9323 23.2912 14.2526 23.0308 14.5703C22.7756 14.8828 22.5047 15.1953 22.2183 15.5078L19.1636 18.8203H24.8745V20Z" fill="#060420"/>
</svg>
