<svg width="31" height="30" viewBox="0 0 31 30" fill="none" xmlns="http://www.w3.org/2000/svg">
<rect x="1.0769" y="1" width="28" height="28" rx="3" stroke="#060420" stroke-width="2"/>
<path d="M14.9597 20H13.5925V14.7422H8.92847V20H7.56909V8.625H8.92847V13.5156H13.5925V8.625H14.9597V20ZM19.1238 13.6172H20.155C20.5196 13.6172 20.8399 13.5677 21.116 13.4688C21.3972 13.3698 21.6342 13.2344 21.8269 13.0625C22.0144 12.8906 22.1576 12.6849 22.2566 12.4453C22.3556 12.2057 22.405 11.9427 22.405 11.6562C22.405 11.3177 22.3608 11.0234 22.2722 10.7734C22.1837 10.5182 22.0535 10.3073 21.8816 10.1406C21.7149 9.97917 21.5066 9.85938 21.2566 9.78125C21.0118 9.69792 20.7306 9.65625 20.4128 9.65625C20.1056 9.65625 19.8243 9.70312 19.5691 9.79688C19.3191 9.88542 19.1056 10.0156 18.9285 10.1875C18.7462 10.3594 18.6056 10.5651 18.5066 10.8047C18.4076 11.0443 18.3582 11.3125 18.3582 11.6094H16.905C16.905 11.1771 16.9884 10.7708 17.155 10.3906C17.3269 10.0052 17.5665 9.66927 17.8738 9.38281C18.1811 9.10156 18.5483 8.88021 18.9753 8.71875C19.4076 8.55208 19.8868 8.46875 20.4128 8.46875C20.9233 8.46875 21.3894 8.53906 21.8113 8.67969C22.2332 8.8151 22.5951 9.01823 22.8972 9.28906C23.1993 9.5599 23.4337 9.89583 23.6003 10.2969C23.767 10.6979 23.8503 11.1615 23.8503 11.6875C23.8503 11.9062 23.8165 12.1328 23.7488 12.3672C23.6811 12.6016 23.5769 12.8281 23.4363 13.0469C23.2957 13.2708 23.1134 13.4818 22.8894 13.6797C22.6707 13.8724 22.4076 14.0339 22.1003 14.1641C22.4701 14.2839 22.7774 14.4401 23.0222 14.6328C23.2722 14.8255 23.4727 15.0417 23.6238 15.2812C23.7696 15.5208 23.8712 15.7734 23.9285 16.0391C23.991 16.3047 24.0222 16.5677 24.0222 16.8281C24.0222 17.3594 23.9311 17.8307 23.7488 18.2422C23.5665 18.6536 23.3139 19 22.991 19.2812C22.6681 19.5677 22.2852 19.7865 21.8425 19.9375C21.405 20.0833 20.9311 20.1562 20.4207 20.1562C19.9207 20.1562 19.4493 20.0859 19.0066 19.9453C18.5691 19.8047 18.1889 19.599 17.866 19.3281C17.5431 19.0573 17.2852 18.7266 17.0925 18.3359C16.905 17.9453 16.8113 17.5 16.8113 17H18.2566C18.2566 17.2969 18.3061 17.5677 18.405 17.8125C18.5092 18.0573 18.655 18.2656 18.8425 18.4375C19.03 18.6094 19.2566 18.7422 19.5222 18.8359C19.7931 18.9297 20.0925 18.9766 20.4207 18.9766C20.7488 18.9766 21.0457 18.9349 21.3113 18.8516C21.5769 18.763 21.8035 18.6302 21.991 18.4531C22.1785 18.276 22.3217 18.0573 22.4207 17.7969C22.5248 17.5312 22.5769 17.2188 22.5769 16.8594C22.5769 16.5052 22.517 16.2005 22.3972 15.9453C22.2826 15.6849 22.1212 15.4688 21.9128 15.2969C21.6993 15.125 21.4415 14.9974 21.1394 14.9141C20.8425 14.8307 20.5144 14.7891 20.155 14.7891H19.1238V13.6172Z" fill="#060420"/>
</svg>
