<svg width="31" height="30" viewBox="0 0 31 30" fill="none" xmlns="http://www.w3.org/2000/svg">
<rect x="1.15381" y="1" width="28" height="28" rx="3" stroke="#060420" stroke-width="2"/>
<path d="M15.0366 20H13.6694V14.7422H9.00537V20H7.646V8.625H9.00537V13.5156H13.6694V8.625H15.0366V20ZM18.0288 14.2969L18.5991 8.625H24.4351V10.0312H19.8179L19.4976 13.0625C19.7215 12.9323 19.9897 12.8177 20.3022 12.7188C20.6147 12.6198 20.9767 12.5703 21.3882 12.5703C21.9142 12.5703 22.3856 12.6615 22.8022 12.8438C23.2189 13.026 23.5731 13.2812 23.8647 13.6094C24.1564 13.9427 24.3804 14.3438 24.5366 14.8125C24.6929 15.2812 24.771 15.8021 24.771 16.375C24.771 16.9167 24.6981 17.4193 24.5522 17.8828C24.4064 18.3464 24.1877 18.7448 23.896 19.0781C23.5991 19.4167 23.2267 19.6823 22.7788 19.875C22.3309 20.0625 21.8049 20.1562 21.2007 20.1562C20.7371 20.1562 20.2996 20.0911 19.8882 19.9609C19.4767 19.8307 19.1121 19.6354 18.7944 19.375C18.4715 19.1146 18.2059 18.7865 17.9976 18.3906C17.7944 17.9948 17.6668 17.5339 17.6147 17.0078H18.9897C19.0783 17.6536 19.3153 18.1432 19.7007 18.4766C20.0913 18.8099 20.5913 18.9766 21.2007 18.9766C21.5444 18.9766 21.8491 18.9167 22.1147 18.7969C22.3804 18.6719 22.6043 18.4948 22.7866 18.2656C22.9637 18.0417 23.0965 17.7708 23.1851 17.4531C23.2788 17.1354 23.3257 16.7812 23.3257 16.3906C23.3257 16.0365 23.2736 15.7057 23.1694 15.3984C23.0705 15.0911 22.9246 14.8229 22.7319 14.5938C22.5392 14.3698 22.3022 14.1927 22.021 14.0625C21.7397 13.9323 21.4168 13.8672 21.0522 13.8672C20.8127 13.8672 20.6043 13.8854 20.4272 13.9219C20.2554 13.9531 20.0991 14 19.9585 14.0625C19.8179 14.125 19.6851 14.2005 19.5601 14.2891C19.4403 14.3776 19.3153 14.4792 19.1851 14.5938L18.0288 14.2969Z" fill="#060420"/>
</svg>
