<svg width="31" height="30" viewBox="0 0 31 30" fill="none" xmlns="http://www.w3.org/2000/svg">
<rect x="1.69238" y="1" width="28" height="28" rx="3" stroke="#060420" stroke-width="2"/>
<path d="M15.5752 20H14.208V14.7422H9.54395V20H8.18457V8.625H9.54395V13.5156H14.208V8.625H15.5752V20ZM23.3799 8.61719V9.91406H23.2549C22.5674 9.91406 21.984 10.013 21.5049 10.2109C21.0257 10.4036 20.6299 10.6641 20.3174 10.9922C19.9893 11.3359 19.7393 11.7448 19.5674 12.2188C19.4007 12.6927 19.3018 13.1797 19.2705 13.6797C19.4059 13.5182 19.5622 13.3698 19.7393 13.2344C19.9163 13.0938 20.109 12.9714 20.3174 12.8672C20.5205 12.7682 20.7393 12.6901 20.9736 12.6328C21.2132 12.5703 21.4632 12.5391 21.7236 12.5391C22.2913 12.5391 22.7809 12.6484 23.1924 12.8672C23.6038 13.0807 23.9424 13.3646 24.208 13.7188C24.4736 14.0729 24.6689 14.474 24.7939 14.9219C24.9189 15.3698 24.9814 15.8255 24.9814 16.2891C24.9814 16.8203 24.9059 17.3203 24.7549 17.7891C24.609 18.2578 24.3877 18.6667 24.0908 19.0156C23.7939 19.3698 23.4242 19.6484 22.9814 19.8516C22.5439 20.0547 22.0361 20.1562 21.458 20.1562C20.8747 20.1562 20.3617 20.0391 19.9189 19.8047C19.4762 19.5703 19.1038 19.2656 18.8018 18.8906C18.4632 18.4792 18.2106 18 18.0439 17.4531C17.8773 16.901 17.7939 16.349 17.7939 15.7969V15.1172C17.7939 14.1693 17.9059 13.237 18.1299 12.3203C18.3538 11.4036 18.7913 10.6198 19.4424 9.96875C19.8903 9.52083 20.4346 9.1849 21.0752 8.96094C21.7158 8.73177 22.4424 8.61719 23.2549 8.61719H23.3799ZM21.4893 13.7422C21.2445 13.7422 21.0075 13.7812 20.7783 13.8594C20.5492 13.9375 20.3356 14.0469 20.1377 14.1875C19.9398 14.3281 19.7653 14.4974 19.6143 14.6953C19.4632 14.8932 19.3434 15.112 19.2549 15.3516V15.8359C19.2549 16.3359 19.3148 16.7812 19.4346 17.1719C19.5544 17.5573 19.7158 17.8828 19.9189 18.1484C20.1221 18.4141 20.3564 18.6172 20.6221 18.7578C20.8877 18.8932 21.1663 18.9609 21.458 18.9609C21.7965 18.9609 22.096 18.8958 22.3564 18.7656C22.6169 18.6354 22.8382 18.4557 23.0205 18.2266C23.1976 17.9974 23.3304 17.724 23.4189 17.4062C23.5127 17.0833 23.5596 16.7344 23.5596 16.3594C23.5596 16.026 23.5179 15.7031 23.4346 15.3906C23.3512 15.0729 23.2236 14.7917 23.0518 14.5469C22.8799 14.3021 22.6637 14.1068 22.4033 13.9609C22.1429 13.8151 21.8382 13.7422 21.4893 13.7422Z" fill="#060420"/>
</svg>
