<svg width="30" height="30" viewBox="0 0 30 30" fill="none" xmlns="http://www.w3.org/2000/svg">
<rect x="1" y="1" width="28" height="28" rx="3" stroke="#060420" stroke-width="2"/>
<rect x="10" y="8" width="14" height="2" rx="1" fill="#060420"/>
<rect x="10" y="12" width="14" height="2" rx="1" fill="#060420"/>
<rect x="10" y="16" width="14" height="2" rx="1" fill="#060420"/>
<rect x="10" y="20" width="14" height="2" rx="1" fill="#060420"/>
<path d="M7.30322 10H6.8916V8.36377L6.35254 8.55713V8.20264L7.28125 7.86719H7.30322V10Z" fill="#060420"/>
<path d="M7.7002 14H6.24561V13.7217L6.93555 12.9805C6.98926 12.9219 7.03467 12.8687 7.07178 12.8208C7.10889 12.7729 7.13916 12.729 7.1626 12.689C7.18506 12.6499 7.20117 12.6133 7.21094 12.5791C7.22168 12.5449 7.22705 12.5117 7.22705 12.4795C7.22705 12.4316 7.22021 12.3892 7.20654 12.3521C7.19287 12.3149 7.17383 12.2832 7.14941 12.2568C7.12402 12.2314 7.09375 12.2119 7.05859 12.1982C7.02441 12.1846 6.98633 12.1777 6.94434 12.1777C6.88965 12.1777 6.84131 12.1855 6.79932 12.2012C6.7583 12.2158 6.72412 12.2378 6.69678 12.2671C6.66846 12.2974 6.64697 12.335 6.63232 12.3799C6.61768 12.4248 6.61035 12.4761 6.61035 12.5337H6.20166C6.20166 12.439 6.21973 12.3496 6.25586 12.2656C6.29199 12.1807 6.34326 12.1064 6.40967 12.043C6.4751 11.9795 6.5542 11.9297 6.64697 11.8936C6.74072 11.8564 6.84424 11.8379 6.95752 11.8379C7.06592 11.8379 7.16162 11.853 7.24463 11.8833C7.32861 11.9136 7.39893 11.9561 7.45557 12.0107C7.51123 12.0654 7.55371 12.1313 7.58301 12.2085C7.6123 12.2847 7.62695 12.3691 7.62695 12.4619C7.62695 12.5322 7.61572 12.5996 7.59326 12.6641C7.57178 12.7275 7.54102 12.7905 7.50098 12.853C7.45996 12.9155 7.41113 12.9795 7.35449 13.0449C7.29785 13.1094 7.23486 13.1772 7.16553 13.2485L6.76416 13.6733H7.7002V14Z" fill="#060420"/>
<path d="M6.71582 16.7549H6.93701C6.99561 16.7549 7.0459 16.7471 7.08789 16.7314C7.13086 16.7148 7.16553 16.6919 7.19189 16.6626C7.21631 16.6372 7.23438 16.6064 7.24609 16.5703C7.25879 16.5332 7.26514 16.4932 7.26514 16.4502C7.26514 16.4082 7.25879 16.3701 7.24609 16.3359C7.23438 16.3008 7.21631 16.2705 7.19189 16.2451C7.16748 16.2207 7.13623 16.2017 7.09814 16.188C7.06104 16.1743 7.01758 16.1675 6.96777 16.1675C6.92676 16.1675 6.88818 16.1733 6.85205 16.1851C6.81689 16.1968 6.78613 16.2134 6.75977 16.2349C6.73242 16.2573 6.71094 16.2842 6.69531 16.3154C6.67969 16.3467 6.67188 16.3818 6.67188 16.4209H6.26465C6.26465 16.334 6.28223 16.2549 6.31738 16.1836C6.35352 16.1123 6.40283 16.0508 6.46533 15.999C6.52783 15.9482 6.60107 15.9087 6.68506 15.8804C6.77002 15.8521 6.86133 15.8379 6.95898 15.8379C7.06445 15.8379 7.16113 15.8511 7.24902 15.8774C7.33691 15.9028 7.41211 15.9409 7.47461 15.9917C7.53711 16.0435 7.58545 16.1074 7.61963 16.1836C7.65479 16.2588 7.67236 16.3462 7.67236 16.4458C7.67236 16.4917 7.66553 16.5371 7.65186 16.582C7.63818 16.626 7.61816 16.668 7.5918 16.708C7.56543 16.748 7.53271 16.7852 7.49365 16.8193C7.45459 16.8525 7.40967 16.8813 7.35889 16.9058C7.41846 16.9272 7.46973 16.9546 7.5127 16.9878C7.55664 17.021 7.59277 17.0586 7.62109 17.1006C7.64941 17.1436 7.67041 17.1904 7.68408 17.2412C7.69775 17.292 7.70459 17.3457 7.70459 17.4023C7.70459 17.502 7.68555 17.5908 7.64746 17.6689C7.60938 17.7471 7.55713 17.8125 7.49072 17.8652C7.42432 17.9189 7.34521 17.96 7.25342 17.9883C7.1626 18.0156 7.06445 18.0293 6.95898 18.0293C6.86816 18.0293 6.7793 18.0171 6.69238 17.9927C6.60645 17.9673 6.52979 17.9292 6.4624 17.8784C6.39502 17.8286 6.34082 17.7656 6.2998 17.6895C6.25977 17.6133 6.23975 17.5234 6.23975 17.4199H6.64697C6.64697 17.4609 6.65479 17.499 6.67041 17.5342C6.68604 17.5684 6.7085 17.5977 6.73779 17.6221C6.76611 17.6475 6.7998 17.6675 6.83887 17.6821C6.87793 17.6958 6.9209 17.7026 6.96777 17.7026C7.02051 17.7026 7.06787 17.6953 7.10986 17.6807C7.15186 17.666 7.18701 17.6445 7.21533 17.6162C7.24268 17.5908 7.26318 17.5596 7.27686 17.5225C7.2915 17.4854 7.29883 17.4438 7.29883 17.3979C7.29883 17.3403 7.29053 17.291 7.27393 17.25C7.25732 17.209 7.2334 17.1753 7.20215 17.1489C7.16992 17.1226 7.13135 17.103 7.08643 17.0903C7.04248 17.0776 6.99268 17.0713 6.93701 17.0713H6.71582V16.7549Z" fill="#060420"/>
<path d="M7.49512 21.2075H7.74268V21.5371H7.49512V22H7.08789V21.5371H6.20166L6.18555 21.2822L7.08203 19.8672H7.49512V21.2075ZM6.58545 21.2075H7.08789V20.415L7.04834 20.4854L6.58545 21.2075Z" fill="#060420"/>
</svg>
