<svg width="31" height="30" viewBox="0 0 31 30" fill="none" xmlns="http://www.w3.org/2000/svg">
<rect x="1.30762" y="1" width="28" height="28" rx="3" stroke="#060420" stroke-width="2"/>
<path d="M19.0029 8.625L19.0186 16.3281C19.0186 16.8594 18.9248 17.3568 18.7373 17.8203C18.5498 18.2839 18.292 18.6875 17.9639 19.0312C17.6357 19.3802 17.2451 19.6562 16.792 19.8594C16.3389 20.0573 15.8415 20.1562 15.2998 20.1562C14.7477 20.1562 14.2451 20.0573 13.792 19.8594C13.3389 19.6615 12.9508 19.388 12.6279 19.0391C12.305 18.6953 12.0524 18.2917 11.8701 17.8281C11.6878 17.3594 11.5941 16.8594 11.5889 16.3281L11.6045 8.625H12.9795L13.0107 16.3281C13.016 16.6667 13.068 16.9922 13.167 17.3047C13.2712 17.6172 13.4196 17.8932 13.6123 18.1328C13.7998 18.3724 14.0342 18.5651 14.3154 18.7109C14.6019 18.8568 14.93 18.9297 15.2998 18.9297C15.6696 18.9297 15.9951 18.8594 16.2764 18.7188C16.5576 18.5729 16.7946 18.3776 16.9873 18.1328C17.1748 17.8932 17.318 17.6172 17.417 17.3047C17.516 16.9922 17.5706 16.6667 17.5811 16.3281L17.6045 8.625H19.0029Z" fill="#060420"/>
<path d="M10.5029 21.5625H20.1045V22.3438H10.5029V21.5625Z" fill="#060420"/>
</svg>
